<?xml version="1.0" encoding="utf-8"?>
<!-- Generator: Adobe Illustrator 22.1.0, SVG Export Plug-In . SVG Version: 6.00 Build 0)  -->
<svg version="1.1" id="Слой_1" xmlns="http://www.w3.org/2000/svg" xmlns:xlink="http://www.w3.org/1999/xlink" x="0px" y="0px"
	 viewBox="0 0 35.8 28.7" style="enable-background:new 0 0 35.8 28.7;" xml:space="preserve">
<style type="text/css">
	.st0{fill:#29ABE2;}
	.st1{fill:#B3B3B3;}
	.st2{fill:#FBB03B;}
	.st3{fill:#262626;}
	.st4{fill:#262626;stroke:#232322;stroke-width:0.25;stroke-miterlimit:10;}
	.st5{fill:#262626;stroke:#FFFFFF;stroke-width:0.283;stroke-miterlimit:10;}
	.st6{fill:#3C3C3B;}
	.st7{fill:#333333;}
	.st8{fill:#FFFFFF;}
</style>
<path class="st0" d="M35.4,12.9L28.8,1.5C28.3,0.6,27.3,0,26.3,0H13.1c-1,0-2,0.6-2.5,1.5L3.9,12.9c-0.5,0.9-0.5,2,0,2.9l6.6,11.4
	c0.5,0.9,1.5,1.5,2.5,1.5h13.2c1,0,2-0.6,2.5-1.5l6.6-11.4C35.9,14.9,35.9,13.8,35.4,12.9z"/>
<path class="st0" d="M8.9,0.5C9,0.3,9.1,0.2,9.3,0H0v28.7h9.3c-0.1-0.2-0.3-0.3-0.4-0.5L2.3,16.7c-0.9-1.5-0.9-3.3,0-4.8L8.9,0.5z"
	/>
</svg>
