<?xml version="1.0" encoding="utf-8"?>
<!-- Generator: Adobe Illustrator 22.1.0, SVG Export Plug-In . SVG Version: 6.00 Build 0)  -->
<svg version="1.1" id="Слой_1" xmlns="http://www.w3.org/2000/svg" xmlns:xlink="http://www.w3.org/1999/xlink" x="0px" y="0px"
	 viewBox="0 0 57.2 55" style="enable-background:new 0 0 57.2 55;" xml:space="preserve">
<style type="text/css">
	.st0{fill:#29ABE2;}
	.st1{fill:#B3B3B3;}
	.st2{fill:#FBB03B;}
	.st3{fill:#262626;}
	.st4{fill:#262626;stroke:#232322;stroke-width:0.25;stroke-miterlimit:10;}
	.st5{fill:#262626;stroke:#FFFFFF;stroke-width:0.283;stroke-miterlimit:10;}
	.st6{fill:#3C3C3B;}
	.st7{fill:#333333;}
</style>
<path class="st0" d="M57.2,12.8V5.6c0-0.7-0.4-1.4-1-1.7L50,0.3C49.7,0.1,49.4,0,49,0c-0.3,0-0.7,0.1-1,0.3l-6.2,3.6
	c-0.6,0.4-1,1-1,1.7v7.2c0,0.7,0.4,1.4,1,1.7l6.2,3.6c0.3,0.2,0.7,0.3,1,0.3c0.3,0,0.7-0.1,1-0.3l6.2-3.6
	C56.9,14.2,57.2,13.5,57.2,12.8z"/>
<path class="st0" d="M40.8,16.3c-1.2-0.7-2-2-2-3.5V7.5L27,0.7c-1.5-0.9-3.5-0.9-5,0L2.5,11.9C1,12.8,0,14.5,0,16.3v22.5
	c0,1.8,1,3.4,2.5,4.3L22,54.4c1.5,0.9,3.5,0.9,5,0l19.5-11.3c1.5-0.9,2.5-2.5,2.5-4.3V20.4c-0.7,0-1.4-0.2-2-0.5L40.8,16.3z"/>
<g>
	<path class="st6" d="M37.3,19.9H17.5l5.4,9.4h9.7c0.8,0,1.5-0.4,1.8-1.1l3.8-6.7c0.1-0.2,0.1-0.4,0.1-0.5
		C38.4,20.4,37.9,19.9,37.3,19.9z"/>
	<path class="st6" d="M35.5,31.8H20.2c0,0-0.1,0-0.1,0c-0.1-0.1-0.2-0.2-0.1-0.4l0.9-1.6l-1.5-2.6l-1.7,2.9c-0.6,1-0.5,2.2,0.2,3.1
		c0.6,0.7,1.4,1.1,2.4,1.1h14c0.1,0,0.2-0.1,0.2-0.1l1.2-2.1c0,0,0-0.1,0-0.1C35.8,31.9,35.6,31.8,35.5,31.8z"/>
	<path class="st6" d="M17.3,35.6c-1.4,0-2.5,1.1-2.5,2.5s1.1,2.5,2.5,2.5c1.4,0,2.5-1.1,2.5-2.5S18.6,35.6,17.3,35.6z"/>
	<path class="st6" d="M29.7,35.6c-1.4,0-2.5,1.1-2.5,2.5s1.1,2.5,2.5,2.5s2.5-1.1,2.5-2.5S31.1,35.6,29.7,35.6z"/>
	<path class="st6" d="M18.7,15.7h-5.4c-0.8,0-1.4,0.6-1.4,1.4c0,0,0,0,0,0c0,0.8,0.6,1.4,1.4,1.4h7L18.7,15.7z"/>
</g>
</svg>
