<?xml version="1.0" encoding="utf-8"?>
<!-- Generator: Adobe Illustrator 22.1.0, SVG Export Plug-In . SVG Version: 6.00 Build 0)  -->
<svg version="1.1" id="Слой_1" xmlns="http://www.w3.org/2000/svg" xmlns:xlink="http://www.w3.org/1999/xlink" x="0px" y="0px"
	 viewBox="0 0 57.2 55" style="enable-background:new 0 0 57.2 55;" xml:space="preserve">
<style type="text/css">
	.st0{fill:#29ABE2;}
	.st1{fill:#B3B3B3;}
	.st2{fill:#FBB03B;}
	.st3{fill:#262626;}
	.st4{fill:#262626;stroke:#232322;stroke-width:0.25;stroke-miterlimit:10;}
	.st5{fill:#262626;stroke:#FFFFFF;stroke-width:0.283;stroke-miterlimit:10;}
	.st6{fill:#3C3C3B;}
	.st7{fill:#333333;}
</style>
<g>
	<path class="st1" d="M57.2,12.8V5.6c0-0.7-0.4-1.4-1-1.7L50,0.3C49.7,0.1,49.4,0,49,0c-0.3,0-0.7,0.1-1,0.3l-6.2,3.6
		c-0.6,0.4-1,1-1,1.7v7.2c0,0.7,0.4,1.4,1,1.7l6.2,3.6c0.3,0.2,0.7,0.3,1,0.3c0.3,0,0.7-0.1,1-0.3l6.2-3.6
		C56.9,14.2,57.2,13.5,57.2,12.8z"/>
	<path class="st1" d="M40.8,16.3c-1.2-0.7-2-2-2-3.5V7.5L27,0.7c-1.5-0.9-3.5-0.9-5,0L2.5,11.9C1,12.8,0,14.5,0,16.3v22.5
		c0,1.8,1,3.4,2.5,4.3L22,54.4c1.5,0.9,3.5,0.9,5,0l19.5-11.3c1.5-0.9,2.5-2.5,2.5-4.3V20.4c-0.7,0-1.4-0.2-2-0.5L40.8,16.3z"/>
</g>
<g>
	<polygon class="st6" points="11.5,28.9 14.1,24.4 16.7,28.9 18.4,28.9 15,22.9 15.8,21.5 14.2,21.5 14,21.5 12.4,21.5 13.2,22.9 
		9.8,28.9 	"/>
	<path class="st6" d="M27.2,23.3c0.1,0,0.3-0.1,0.4-0.2l1.8-3.1l0,0H34c0.8,0,1.4-0.6,1.4-1.4s-0.6-1.4-1.4-1.4v0h-7.1v2.4l0,0v3.4
		C26.8,23.2,27,23.3,27.2,23.3z"/>
	<polygon class="st6" points="31.1,28.9 33.7,24.4 36.3,28.9 38.1,28.9 34.6,22.9 35.4,21.5 33.8,21.5 33.6,21.5 32.1,21.5 
		32.8,22.9 29.4,28.9 	"/>
	<path class="st6" d="M25.4,20L25.4,20l0-2.9h0c0-0.8-0.7-1.5-1.5-1.5c-0.8,0-1.5,0.7-1.5,1.5h0v0V20v16.3h2.9V20z"/>
	<path class="st6" d="M18.4,32.1v-1.8H9.8v1.8c0,0.2,0.1,0.3,0.2,0.4l3.8,2.2c0.2,0.1,0.3,0.1,0.5,0l3.8-2.2
		C18.3,32.4,18.4,32.2,18.4,32.1z"/>
	<path class="st6" d="M29.4,37.6c-0.1,0-0.2-0.1-0.3-0.1v0H18.7v0c-0.1,0-0.2,0-0.2,0.1L16,39c-0.2,0.1-0.2,0.3-0.2,0.4v1.1h2.9h2.9
		h4.6h2.9H32v-1.1c0-0.2-0.1-0.3-0.2-0.4L29.4,37.6z"/>
	<path class="st6" d="M29.4,32.1c0,0.2,0.1,0.3,0.2,0.4l3.8,2.2c0.2,0.1,0.3,0.1,0.5,0l3.8-2.2c0.2-0.1,0.2-0.2,0.2-0.4v-1.8h-8.7
		V32.1z"/>
	<path class="st6" d="M13.9,20h4.6l1.8,3.1c0.1,0.1,0.2,0.2,0.4,0.2c0.2,0,0.4-0.2,0.4-0.4V20h0v-2.9h-7.1c-0.8,0-1.4,0.6-1.4,1.4
		C12.4,19.4,13.1,20,13.9,20z"/>
</g>
</svg>
