<?xml version="1.0" encoding="utf-8"?>
<!-- Generator: Adobe Illustrator 24.1.3, SVG Export Plug-In . SVG Version: 6.00 Build 0)  -->
<svg version="1.1" id="Слой_1" xmlns="http://www.w3.org/2000/svg" xmlns:xlink="http://www.w3.org/1999/xlink" x="0px" y="0px"
	 viewBox="0 0 57.2 55" style="enable-background:new 0 0 57.2 55;" xml:space="preserve">
<style type="text/css">
	.st0{fill:#B3B3B3;}
	.st1{fill:#3C3C3B;}
</style>
<g>
	<path class="st0" d="M57.2,12.8V5.6c0-0.7-0.4-1.4-1-1.7L50,0.3C49.7,0.1,49.4,0,49,0c-0.3,0-0.7,0.1-1,0.3l-6.2,3.6
		c-0.6,0.4-1,1-1,1.7v7.2c0,0.7,0.4,1.4,1,1.7l6.2,3.6c0.3,0.2,0.7,0.3,1,0.3s0.7-0.1,1-0.3l6.2-3.6C56.9,14.2,57.2,13.5,57.2,12.8z
		"/>
	<path class="st0" d="M41.5,16.6c-1.2-0.7-2-2-2-3.5V7.8L27.7,1c-1.5-0.9-3.5-0.9-5,0L3.2,12.2c-1.5,0.9-2.5,2.6-2.5,4.4v22.5
		c0,1.8,1,3.4,2.5,4.3l19.5,11.3c1.5,0.9,3.5,0.9,5,0l19.5-11.3c1.5-0.9,2.5-2.5,2.5-4.3V20.7c-0.7,0-1.4-0.2-2-0.5L41.5,16.6z"/>
	<path class="st1" d="M39.4,33h-0.7v-4.7c0-0.5-0.2-1.1-0.6-1.5l-4.3-4.3c-0.4-0.4-0.9-0.6-1.5-0.6h-1.9v-2.1c0-1.1-0.9-2.1-2.1-2.1
		H14.5c-1.1,0-2.1,0.9-2.1,2.1v13.8c0,1.1,0.9,2.1,2.1,2.1h0.7c0,2.3,1.9,4.2,4.2,4.2s4.2-1.9,4.2-4.2H29c0,2.3,1.9,4.2,4.2,4.2
		s4.2-1.9,4.2-4.2h2.1c0.4,0,0.7-0.3,0.7-0.7v-1.4C40.1,33.3,39.8,33,39.4,33z M19.3,37.8c-1.1,0-2.1-0.9-2.1-2.1s0.9-2.1,2.1-2.1
		s2.1,0.9,2.1,2.1S20.5,37.8,19.3,37.8z M33.2,37.8c-1.1,0-2.1-0.9-2.1-2.1s0.9-2.1,2.1-2.1s2.1,0.9,2.1,2.1S34.3,37.8,33.2,37.8z
		 M36.6,28.8h-6.2V24h1.9l4.3,4.3V28.8z"/>
</g>
</svg>
