<svg id="Слой_1" data-name="Слой 1" xmlns="http://www.w3.org/2000/svg" viewBox="0 0 56.5 55.37"><defs><style>.cls-1{fill:#ff1919;}.cls-2{fill:#b3b3b3;}.cls-3{fill:#3c3c3b;}</style></defs><path class="cls-1" d="M57.2,12.8V5.6a1.94,1.94,0,0,0-1-1.7L50,.3A1.69,1.69,0,0,0,49,0a1.93,1.93,0,0,0-1,.3L41.8,3.9a2.06,2.06,0,0,0-1,1.7v7.2a1.94,1.94,0,0,0,1,1.7L48,18.1a1.82,1.82,0,0,0,2,0l6.2-3.6A1.76,1.76,0,0,0,57.2,12.8Z" transform="translate(-0.7)"/><path class="cls-2" d="M41.5,16.6a4,4,0,0,1-2-3.5V7.8L27.7,1a5,5,0,0,0-5,0L3.2,12.2A5.21,5.21,0,0,0,.7,16.6V39.1a5,5,0,0,0,2.5,4.3L22.7,54.7a5,5,0,0,0,5,0L47.2,43.4a5,5,0,0,0,2.5-4.3V20.7a4.55,4.55,0,0,1-2-.5Z" transform="translate(-0.7)"/><path class="cls-3" d="M39.4,33h-.7V28.3a2.2,2.2,0,0,0-.6-1.5l-4.3-4.3a2,2,0,0,0-1.5-.6H30.4V19.8a2.11,2.11,0,0,0-2.1-2.1H14.5a2.11,2.11,0,0,0-2.1,2.1V33.6a2.11,2.11,0,0,0,2.1,2.1h.7a4.2,4.2,0,1,0,8.4,0H29a4.2,4.2,0,1,0,8.4,0h2.1a.68.68,0,0,0,.7-.7V33.6A.87.87,0,0,0,39.4,33ZM19.3,37.8a2.11,2.11,0,0,1-2.1-2.1,2.1,2.1,0,1,1,2.1,2.1Zm13.9,0a2.11,2.11,0,0,1-2.1-2.1,2.1,2.1,0,1,1,4.2,0A2.11,2.11,0,0,1,33.2,37.8Zm3.4-9H30.4V24h1.9l4.3,4.3Z" transform="translate(-0.7)"/></svg>