<?xml version="1.0" encoding="utf-8"?>
<!-- Generator: Adobe Illustrator 22.1.0, SVG Export Plug-In . SVG Version: 6.00 Build 0)  -->
<svg version="1.1" id="Слой_1" xmlns="http://www.w3.org/2000/svg" xmlns:xlink="http://www.w3.org/1999/xlink" x="0px" y="0px"
	 viewBox="0 0 57.2 55" style="enable-background:new 0 0 57.2 55;" xml:space="preserve">
<style type="text/css">
	.st0{fill:#29ABE2;}
	.st8{fill:#FF1919;}
	.st1{fill:#B3B3B3;}
	.st2{fill:#FBB03B;}
	.st3{fill:#262626;}
	.st4{fill:#262626;stroke:#232322;stroke-width:0.25;stroke-miterlimit:10;}
	.st5{fill:#262626;stroke:#FFFFFF;stroke-width:0.283;stroke-miterlimit:10;}
	.st6{fill:#3C3C3B;}
	.st7{fill:#333333;}
</style>
<path class="st8" d="M57.2,12.8V5.6c0-0.7-0.4-1.4-1-1.7L50,0.3C49.7,0.1,49.4,0,49,0c-0.3,0-0.7,0.1-1,0.3l-6.2,3.6
	c-0.6,0.4-1,1-1,1.7v7.2c0,0.7,0.4,1.4,1,1.7l6.2,3.6c0.3,0.2,0.7,0.3,1,0.3c0.3,0,0.7-0.1,1-0.3l6.2-3.6
	C56.9,14.2,57.2,13.5,57.2,12.8z"/>
<path class="st2" d="M40.8,16.3c-1.2-0.7-2-2-2-3.5V7.5L27,0.7c-1.5-0.9-3.5-0.9-5,0L2.5,11.9C1,12.8,0,14.5,0,16.3v22.5
	c0,1.8,1,3.4,2.5,4.3L22,54.4c1.5,0.9,3.5,0.9,5,0l19.5-11.3c1.5-0.9,2.5-2.5,2.5-4.3V20.4c-0.7,0-1.4-0.2-2-0.5L40.8,16.3z"/>
<g>
	<path class="st7" d="M30.2,33c-1.9-3.3-6.4-11.2-6.4-11.2L20.5,16c-0.1-0.2-0.3-0.3-0.6-0.3h-6.4c-0.2,0-0.5,0.1-0.6,0.3l-3.2,5.5
		c-0.1,0.2-0.1,0.5,0,0.7l3.4,5.9l3.6,6.2l3.4,5.9c0.1,0.2,0.3,0.3,0.6,0.3h6.4c0.2,0,0.5-0.1,0.6-0.3l3.4-5.9L30.2,33L30.2,33z"/>
	<path class="st7" d="M38,21.5L34.8,16c-0.1-0.2-0.3-0.3-0.6-0.3h-6.4c-0.2,0-0.5,0.1-0.6,0.3l-2.6,4.5l0.8,1.4l2.8-4.8h5.6l2.8,4.8
		l-3.2,5.5L31,31.6l0.8,1.4l2.8-4.9l3.4-5.9C38.2,22,38.2,21.8,38,21.5z"/>
</g>
</svg>
